# xmcd
#
# Track frame offsets:
#	150
#	18132
#	34442
#	53242
#	70980
#	83277
#	111555
#	134110
#	144982
#	166140
#	189695
#	207385
#	224440
#
# Disc length: 3232 seconds
#
# Revision: 1
# Processed by: cddbd v1.5.1PL0 Copyright (c) Steve Scherf et al.
# Submitted via: EasyCDDAExtractor 7.1.0.1
#
DISCID=c30c9e0d
DTITLE=Michelle Willson - Tryin' to Make a Little Love
DYEAR=1998
DGENRE=Blues
TTITLE0=Tryin' To Make A Little Love
TTITLE1=Ay La Bas
TTITLE2=Life Rolls On
TTITLE3=I Would Rather Do Without It
TTITLE4=Each Day
TTITLE5=Half Past The Blues
TTITLE6=Responsibility
TTITLE7=Bring It Home To Me
TTITLE8=Shifting Sand
TTITLE9=Someday
TTITLE10=Corazon De Hielo
TTITLE11=Guess You Didn't Love Me Enough
TTITLE12=In The Driver's Seat
EXTD=
EXTT0=
EXTT1=
EXTT2=
EXTT3=
EXTT4=
EXTT5=
EXTT6=
EXTT7=
EXTT8=
EXTT9=
EXTT10=
EXTT11=
EXTT12=
PLAYORDER=
